<?xml version="1.0" standalone="no"?>
<!DOCTYPE svg PUBLIC "-//W3C//DTD SVG 20010904//EN"
 "http://www.w3.org/TR/2001/REC-SVG-20010904/DTD/svg10.dtd">
<svg version="1.0" xmlns="http://www.w3.org/2000/svg"
 width="150.000000pt" height="150.000000pt" viewBox="0 0 150.000000 150.000000"
 preserveAspectRatio="xMidYMid meet">

<g transform="translate(0.000000,150.000000) scale(0.100000,-0.100000)"
fill="#000000" stroke="none">
<path d="M0 750 l0 -750 750 0 750 0 0 750 0 750 -750 0 -750 0 0 -750z m1329
411 l121 -154 -31 -19 c-17 -10 -72 -42 -123 -70 -111 -63 -182 -113 -401
-284 -169 -131 -280 -237 -384 -367 -30 -37 -57 -67 -61 -67 -4 0 -20 19 -37
43 -56 77 -149 164 -241 223 -50 33 -97 64 -106 69 -13 9 -13 20 4 105 11 52
25 119 31 147 l10 53 37 -19 c41 -22 146 -126 184 -184 l25 -37 99 102 c148
153 328 322 423 397 129 101 315 230 322 222 4 -3 61 -75 128 -160z"/>
</g>
</svg>
